G75*
%MOIN*%
%OFA0B0*%
%FSLAX25Y25*%
%IPPOS*%
%LPD*%
%AMOC8*
5,1,8,0,0,1.08239X$1,22.5*
%
%ADD10R,0.02362X0.06102*%
%ADD11R,0.04724X0.07087*%
%ADD12R,0.04331X0.03937*%
%ADD13C,0.00875*%
D10*
X0070594Y0033587D03*
X0074531Y0033587D03*
X0078469Y0033587D03*
X0082406Y0033587D03*
D11*
X0087524Y0048843D03*
X0065476Y0048843D03*
D12*
X0053154Y0024800D03*
X0059846Y0024800D03*
D13*
X0074187Y0025487D02*
X0076813Y0025487D01*
X0074187Y0025487D02*
X0074187Y0028113D01*
X0076813Y0028113D01*
X0076813Y0025487D01*
X0076813Y0026318D02*
X0074187Y0026318D01*
X0074187Y0027149D02*
X0076813Y0027149D01*
X0076813Y0027980D02*
X0074187Y0027980D01*
X0080187Y0025487D02*
X0082813Y0025487D01*
X0080187Y0025487D02*
X0080187Y0028113D01*
X0082813Y0028113D01*
X0082813Y0025487D01*
X0082813Y0026318D02*
X0080187Y0026318D01*
X0080187Y0027149D02*
X0082813Y0027149D01*
X0082813Y0027980D02*
X0080187Y0027980D01*
X0091313Y0028113D02*
X0091313Y0025487D01*
X0088687Y0025487D01*
X0088687Y0028113D01*
X0091313Y0028113D01*
X0091313Y0026318D02*
X0088687Y0026318D01*
X0088687Y0027149D02*
X0091313Y0027149D01*
X0091313Y0027980D02*
X0088687Y0027980D01*
X0091313Y0022113D02*
X0091313Y0019487D01*
X0088687Y0019487D01*
X0088687Y0022113D01*
X0091313Y0022113D01*
X0091313Y0020318D02*
X0088687Y0020318D01*
X0088687Y0021149D02*
X0091313Y0021149D01*
X0091313Y0021980D02*
X0088687Y0021980D01*
M02*
